<svg id="visual" viewBox="0 0 900 600" width="900" height="600" xmlns="http://www.w3.org/2000/svg" xmlns:xlink="http://www.w3.org/1999/xlink" version="1.1"><rect x="0" y="0" width="900" height="600" fill="#FBAE3C"></rect><defs><linearGradient id="grad1_0" x1="33.3%" y1="0%" x2="100%" y2="100%"><stop offset="20%" stop-color="#212119" stop-opacity="1"></stop><stop offset="80%" stop-color="#212119" stop-opacity="1"></stop></linearGradient></defs><defs><linearGradient id="grad1_1" x1="33.3%" y1="0%" x2="100%" y2="100%"><stop offset="20%" stop-color="#212119" stop-opacity="1"></stop><stop offset="80%" stop-color="#7a6829" stop-opacity="1"></stop></linearGradient></defs><defs><linearGradient id="grad1_2" x1="33.3%" y1="0%" x2="100%" y2="100%"><stop offset="20%" stop-color="#fbae3c" stop-opacity="1"></stop><stop offset="80%" stop-color="#7a6829" stop-opacity="1"></stop></linearGradient></defs><defs><linearGradient id="grad2_0" x1="0%" y1="0%" x2="66.7%" y2="100%"><stop offset="20%" stop-color="#212119" stop-opacity="1"></stop><stop offset="80%" stop-color="#212119" stop-opacity="1"></stop></linearGradient></defs><defs><linearGradient id="grad2_1" x1="0%" y1="0%" x2="66.7%" y2="100%"><stop offset="20%" stop-color="#7a6829" stop-opacity="1"></stop><stop offset="80%" stop-color="#212119" stop-opacity="1"></stop></linearGradient></defs><defs><linearGradient id="grad2_2" x1="0%" y1="0%" x2="66.7%" y2="100%"><stop offset="20%" stop-color="#7a6829" stop-opacity="1"></stop><stop offset="80%" stop-color="#fbae3c" stop-opacity="1"></stop></linearGradient></defs><g transform="translate(900, 0)"><path d="M0 540.8C-103.1 531.6 -206.2 522.4 -270.4 468.4C-334.6 414.4 -359.8 315.5 -398.4 230C-436.9 144.5 -488.9 72.2 -540.8 0L0 0Z" fill="#b68c30"></path><path d="M0 360.6C-68.7 354.4 -137.5 348.3 -180.3 312.2C-223.1 276.2 -239.9 210.4 -265.6 153.3C-291.3 96.3 -325.9 48.2 -360.6 0L0 0Z" fill="#494422"></path><path d="M0 180.3C-34.4 177.2 -68.7 174.1 -90.1 156.1C-111.5 138.1 -119.9 105.2 -132.8 76.7C-145.6 48.2 -163 24.1 -180.3 0L0 0Z" fill="#212119"></path></g><g transform="translate(0, 600)"><path d="M0 -540.8C97.4 -528.3 194.7 -515.7 270.4 -468.4C346.1 -421 400.2 -338.9 441.7 -255C483.1 -171.1 512 -85.6 540.8 0L0 0Z" fill="#b68c30"></path><path d="M0 -360.6C64.9 -352.2 129.8 -343.8 180.3 -312.2C230.8 -280.7 266.8 -225.9 294.4 -170C322.1 -114.1 341.3 -57 360.6 0L0 0Z" fill="#494422"></path><path d="M0 -180.3C32.5 -176.1 64.9 -171.9 90.1 -156.1C115.4 -140.3 133.4 -113 147.2 -85C161 -57 170.7 -28.5 180.3 0L0 0Z" fill="#212119"></path></g></svg>