<svg id="visual" viewBox="0 0 900 600" width="900" height="600" xmlns="http://www.w3.org/2000/svg" xmlns:xlink="http://www.w3.org/1999/xlink" version="1.1"><path d="M0 163L12.5 166C25 169 50 175 75 166C100 157 125 133 150 129C175 125 200 141 225 135C250 129 275 101 300 93C325 85 350 97 375 103C400 109 425 109 450 113C475 117 500 125 525 126C550 127 575 121 600 109C625 97 650 79 675 82C700 85 725 109 750 115C775 121 800 109 825 100C850 91 875 85 887.5 82L900 79L900 0L887.5 0C875 0 850 0 825 0C800 0 775 0 750 0C725 0 700 0 675 0C650 0 625 0 600 0C575 0 550 0 525 0C500 0 475 0 450 0C425 0 400 0 375 0C350 0 325 0 300 0C275 0 250 0 225 0C200 0 175 0 150 0C125 0 100 0 75 0C50 0 25 0 12.5 0L0 0Z" fill="#fec879"></path><path d="M0 223L12.5 225C25 227 50 231 75 224C100 217 125 199 150 200C175 201 200 221 225 213C250 205 275 169 300 162C325 155 350 177 375 189C400 201 425 203 450 207C475 211 500 217 525 214C550 211 575 199 600 181C625 163 650 139 675 146C700 153 725 191 750 197C775 203 800 177 825 162C850 147 875 143 887.5 141L900 139L900 77L887.5 80C875 83 850 89 825 98C800 107 775 119 750 113C725 107 700 83 675 80C650 77 625 95 600 107C575 119 550 125 525 124C500 123 475 115 450 111C425 107 400 107 375 101C350 95 325 83 300 91C275 99 250 127 225 133C200 139 175 123 150 127C125 131 100 155 75 164C50 173 25 167 12.5 164L0 161Z" fill="#fdbb5c"></path><path d="M0 373L12.5 375C25 377 50 381 75 368C100 355 125 325 150 322C175 319 200 343 225 360C250 377 275 387 300 393C325 399 350 401 375 390C400 379 425 355 450 344C475 333 500 335 525 341C550 347 575 357 600 361C625 365 650 363 675 361C700 359 725 357 750 346C775 335 800 315 825 309C850 303 875 311 887.5 315L900 319L900 137L887.5 139C875 141 850 145 825 160C800 175 775 201 750 195C725 189 700 151 675 144C650 137 625 161 600 179C575 197 550 209 525 212C500 215 475 209 450 205C425 201 400 199 375 187C350 175 325 153 300 160C275 167 250 203 225 211C200 219 175 199 150 198C125 197 100 215 75 222C50 229 25 225 12.5 223L0 221Z" fill="#fbae3c"></path><path d="M0 529L12.5 533C25 537 50 545 75 540C100 535 125 517 150 515C175 513 200 527 225 529C250 531 275 521 300 514C325 507 350 503 375 504C400 505 425 511 450 511C475 511 500 505 525 505C550 505 575 511 600 520C625 529 650 541 675 541C700 541 725 529 750 523C775 517 800 517 825 520C850 523 875 529 887.5 532L900 535L900 317L887.5 313C875 309 850 301 825 307C800 313 775 333 750 344C725 355 700 357 675 359C650 361 625 363 600 359C575 355 550 345 525 339C500 333 475 331 450 342C425 353 400 377 375 388C350 399 325 397 300 391C275 385 250 375 225 358C200 341 175 317 150 320C125 323 100 353 75 366C50 379 25 375 12.5 373L0 371Z" fill="#dc9732"></path><path d="M0 601L12.5 601C25 601 50 601 75 601C100 601 125 601 150 601C175 601 200 601 225 601C250 601 275 601 300 601C325 601 350 601 375 601C400 601 425 601 450 601C475 601 500 601 525 601C550 601 575 601 600 601C625 601 650 601 675 601C700 601 725 601 750 601C775 601 800 601 825 601C850 601 875 601 887.5 601L900 601L900 533L887.5 530C875 527 850 521 825 518C800 515 775 515 750 521C725 527 700 539 675 539C650 539 625 527 600 518C575 509 550 503 525 503C500 503 475 509 450 509C425 509 400 503 375 502C350 501 325 505 300 512C275 519 250 529 225 527C200 525 175 511 150 513C125 515 100 533 75 538C50 543 25 535 12.5 531L0 527Z" fill="#bd8028"></path></svg>