<svg id="visual" viewBox="0 0 900 600" width="900" height="600" xmlns="http://www.w3.org/2000/svg" xmlns:xlink="http://www.w3.org/1999/xlink" version="1.1"><rect x="0" y="0" width="900" height="600" fill="#D5CDC0"></rect><defs><linearGradient id="grad1_0" x1="33.3%" y1="100%" x2="100%" y2="0%"><stop offset="20%" stop-color="#191d21" stop-opacity="1"></stop><stop offset="80%" stop-color="#191d21" stop-opacity="1"></stop></linearGradient></defs><defs><linearGradient id="grad1_1" x1="33.3%" y1="100%" x2="100%" y2="0%"><stop offset="20%" stop-color="#191d21" stop-opacity="1"></stop><stop offset="80%" stop-color="#485454" stop-opacity="1"></stop></linearGradient></defs><defs><linearGradient id="grad1_2" x1="33.3%" y1="100%" x2="100%" y2="0%"><stop offset="20%" stop-color="#878f87" stop-opacity="1"></stop><stop offset="80%" stop-color="#485454" stop-opacity="1"></stop></linearGradient></defs><defs><linearGradient id="grad1_3" x1="33.3%" y1="100%" x2="100%" y2="0%"><stop offset="20%" stop-color="#878f87" stop-opacity="1"></stop><stop offset="80%" stop-color="#d5cdc0" stop-opacity="1"></stop></linearGradient></defs><defs><linearGradient id="grad2_0" x1="0%" y1="100%" x2="66.7%" y2="0%"><stop offset="20%" stop-color="#191d21" stop-opacity="1"></stop><stop offset="80%" stop-color="#191d21" stop-opacity="1"></stop></linearGradient></defs><defs><linearGradient id="grad2_1" x1="0%" y1="100%" x2="66.7%" y2="0%"><stop offset="20%" stop-color="#485454" stop-opacity="1"></stop><stop offset="80%" stop-color="#191d21" stop-opacity="1"></stop></linearGradient></defs><defs><linearGradient id="grad2_2" x1="0%" y1="100%" x2="66.7%" y2="0%"><stop offset="20%" stop-color="#485454" stop-opacity="1"></stop><stop offset="80%" stop-color="#878f87" stop-opacity="1"></stop></linearGradient></defs><defs><linearGradient id="grad2_3" x1="0%" y1="100%" x2="66.7%" y2="0%"><stop offset="20%" stop-color="#d5cdc0" stop-opacity="1"></stop><stop offset="80%" stop-color="#878f87" stop-opacity="1"></stop></linearGradient></defs><g transform="translate(900, 600)"><path d="M-396 0C-413.3 -39.8 -430.6 -79.6 -417.9 -112C-405.3 -144.3 -362.7 -169.2 -331.7 -191.5C-300.7 -213.8 -281.3 -233.5 -265.9 -265.9C-250.5 -298.3 -239.1 -343.5 -213 -368.9C-186.9 -394.4 -146.1 -400.2 -108.2 -403.8C-70.2 -407.3 -35.1 -408.7 0 -410L0 0Z" fill="#adaea2"></path><path d="M-297 0C-310 -29.9 -322.9 -59.7 -313.4 -84C-304 -108.2 -272 -126.9 -248.8 -143.6C-225.5 -160.3 -211 -175.1 -199.4 -199.4C-187.9 -223.7 -179.3 -257.6 -159.8 -276.7C-140.2 -295.8 -109.6 -300.1 -81.1 -302.8C-52.7 -305.5 -26.3 -306.5 0 -307.5L0 0Z" fill="#65716d"></path><path d="M-198 0C-206.6 -19.9 -215.3 -39.8 -209 -56C-202.6 -72.2 -181.3 -84.6 -165.8 -95.8C-150.3 -106.9 -140.6 -116.7 -132.9 -132.9C-125.2 -149.1 -119.5 -171.7 -106.5 -184.5C-93.5 -197.2 -73.1 -200.1 -54.1 -201.9C-35.1 -203.7 -17.6 -204.3 0 -205L0 0Z" fill="#2f373a"></path><path d="M-99 0C-103.3 -10 -107.6 -19.9 -104.5 -28C-101.3 -36.1 -90.7 -42.3 -82.9 -47.9C-75.2 -53.4 -70.3 -58.4 -66.5 -66.5C-62.6 -74.6 -59.8 -85.9 -53.3 -92.2C-46.7 -98.6 -36.5 -100 -27 -100.9C-17.6 -101.8 -8.8 -102.2 0 -102.5L0 0Z" fill="#191d21"></path></g><g transform="translate(0, 0)"><path d="M428 0C395.2 29.3 362.3 58.5 358.4 96C354.4 133.5 379.2 179.2 374.7 216.3C370.2 253.5 336.2 282 301.2 301.2C266.3 320.5 230.3 330.4 196.5 340.3C162.7 350.3 131 360.1 98.6 368C66.2 375.9 33.1 382 0 388L0 0Z" fill="#adaea2"></path><path d="M321 0C296.4 22 271.8 43.9 268.8 72C265.8 100.1 284.4 134.4 281 162.2C277.6 190.1 252.1 211.5 225.9 225.9C199.7 240.4 172.7 247.8 147.4 255.3C122 262.7 98.3 270.1 74 276C49.7 282 24.8 286.5 0 291L0 0Z" fill="#65716d"></path><path d="M214 0C197.6 14.6 181.2 29.3 179.2 48C177.2 66.8 189.6 89.6 187.3 108.2C185.1 126.7 168.1 141 150.6 150.6C133.1 160.2 115.2 165.2 98.3 170.2C81.3 175.1 65.5 180 49.3 184C33.1 188 16.6 191 0 194L0 0Z" fill="#2f373a"></path><path d="M107 0C98.8 7.3 90.6 14.6 89.6 24C88.6 33.4 94.8 44.8 93.7 54.1C92.5 63.4 84 70.5 75.3 75.3C66.6 80.1 57.6 82.6 49.1 85.1C40.7 87.6 32.8 90 24.7 92C16.6 94 8.3 95.5 0 97L0 0Z" fill="#191d21"></path></g></svg>