<svg id="visual" viewBox="0 0 900 600" width="900" height="600" xmlns="http://www.w3.org/2000/svg" xmlns:xlink="http://www.w3.org/1999/xlink" version="1.1"><path d="M0 55L50 52C100 49 200 43 300 40C400 37 500 37 600 38C700 39 800 41 850 42L900 43L900 0L850 0C800 0 700 0 600 0C500 0 400 0 300 0C200 0 100 0 50 0L0 0Z" fill="#e2bf80"></path><path d="M0 97L50 92C100 87 200 77 300 73C400 69 500 71 600 74C700 77 800 81 850 83L900 85L900 41L850 40C800 39 700 37 600 36C500 35 400 35 300 38C200 41 100 47 50 50L0 53Z" fill="#deb770"></path><path d="M0 241L50 234C100 227 200 213 300 206C400 199 500 199 600 209C700 219 800 239 850 249L900 259L900 83L850 81C800 79 700 75 600 72C500 69 400 67 300 71C200 75 100 85 50 90L0 95Z" fill="#daae61"></path><path d="M0 355L50 355C100 355 200 355 300 361C400 367 500 379 600 384C700 389 800 387 850 386L900 385L900 257L850 247C800 237 700 217 600 207C500 197 400 197 300 204C200 211 100 225 50 232L0 239Z" fill="#d5a651"></path><path d="M0 427L50 423C100 419 200 411 300 414C400 417 500 431 600 436C700 441 800 437 850 435L900 433L900 383L850 384C800 385 700 387 600 382C500 377 400 365 300 359C200 353 100 353 50 353L0 353Z" fill="#cb9c46"></path><path d="M0 481L50 478C100 475 200 469 300 471C400 473 500 483 600 484C700 485 800 477 850 473L900 469L900 431L850 433C800 435 700 439 600 434C500 429 400 415 300 412C200 409 100 417 50 421L0 425Z" fill="#bb8f40"></path><path d="M0 511L50 509C100 507 200 503 300 507C400 511 500 523 600 525C700 527 800 519 850 515L900 511L900 467L850 471C800 475 700 483 600 482C500 481 400 471 300 469C200 467 100 473 50 476L0 479Z" fill="#ab833a"></path><path d="M0 601L50 601C100 601 200 601 300 601C400 601 500 601 600 601C700 601 800 601 850 601L900 601L900 509L850 513C800 517 700 525 600 523C500 521 400 509 300 505C200 501 100 505 50 507L0 509Z" fill="#9c7734"></path></svg>