<svg id="visual" viewBox="0 0 900 600" width="900" height="600" xmlns="http://www.w3.org/2000/svg" xmlns:xlink="http://www.w3.org/1999/xlink" version="1.1"><rect x="0" y="0" width="900" height="600" fill="#d8d0c5"></rect><defs><linearGradient id="grad1_0" x1="33.3%" y1="100%" x2="100%" y2="0%"><stop offset="20%" stop-color="#d9b061" stop-opacity="1"></stop><stop offset="80%" stop-color="#d9b061" stop-opacity="1"></stop></linearGradient></defs><defs><linearGradient id="grad1_1" x1="33.3%" y1="100%" x2="100%" y2="0%"><stop offset="20%" stop-color="#d9b061" stop-opacity="1"></stop><stop offset="80%" stop-color="#d8d0c5" stop-opacity="1"></stop></linearGradient></defs><defs><linearGradient id="grad2_0" x1="0%" y1="100%" x2="66.7%" y2="0%"><stop offset="20%" stop-color="#d9b061" stop-opacity="1"></stop><stop offset="80%" stop-color="#d9b061" stop-opacity="1"></stop></linearGradient></defs><defs><linearGradient id="grad2_1" x1="0%" y1="100%" x2="66.7%" y2="0%"><stop offset="20%" stop-color="#d8d0c5" stop-opacity="1"></stop><stop offset="80%" stop-color="#d9b061" stop-opacity="1"></stop></linearGradient></defs><g transform="translate(900, 600)"><path d="M-459.7 0C-407.5 -68.2 -355.2 -136.5 -304 -175.5C-252.7 -214.5 -202.5 -224.4 -152 -263.3C-101.5 -302.2 -50.8 -370.1 0 -438L0 0Z" fill="#dbc093"></path><path d="M-229.9 0C-203.7 -34.1 -177.6 -68.2 -152 -87.8C-126.4 -107.3 -101.2 -112.2 -76 -131.6C-50.8 -151.1 -25.4 -185 0 -219L0 0Z" fill="#d9b061"></path></g><g transform="translate(0, 0)"><path d="M459.7 0C432.2 74.2 404.6 148.4 359.4 207.5C314.2 266.6 251.3 310.6 188.5 326.5C125.7 342.4 62.8 330.2 0 318L0 0Z" fill="#dbc093"></path><path d="M229.9 0C216.1 37.1 202.3 74.2 179.7 103.7C157.1 133.3 125.7 155.3 94.3 163.2C62.8 171.2 31.4 165.1 0 159L0 0Z" fill="#d9b061"></path></g></svg>