<svg id="visual" viewBox="0 0 900 600" width="900" height="600" xmlns="http://www.w3.org/2000/svg" xmlns:xlink="http://www.w3.org/1999/xlink" version="1.1"><rect x="0" y="0" width="900" height="600" fill="#D8D0C5"></rect><g transform="translate(872.4442938137645 601.9732698720738)"><path d="M177.5 -340C224.7 -280.2 254 -221.9 308.2 -165.4C362.5 -109 441.7 -54.5 451 5.3C460.2 65.2 399.4 130.3 325.1 152C250.7 173.6 162.9 151.8 106.4 219.2C50 286.6 25 443.3 -6.6 454.7C-38.2 466.1 -76.3 332.2 -132.3 264.5C-188.3 196.9 -262.2 195.4 -317.8 162.4C-373.3 129.3 -410.7 64.7 -391.9 10.8C-373.1 -43 -298.3 -86 -255.3 -140.8C-212.3 -195.7 -201.1 -262.4 -163.9 -327.9C-126.7 -393.4 -63.3 -457.7 0.9 -459.3C65.2 -460.9 130.3 -399.7 177.5 -340" fill="#D9B061"></path></g></svg>