<svg id="visual" viewBox="0 0 900 600" width="900" height="600" xmlns="http://www.w3.org/2000/svg" xmlns:xlink="http://www.w3.org/1999/xlink" version="1.1"><rect x="0" y="0" width="900" height="600" fill="#D5CDC0"></rect><defs><linearGradient id="grad1_0" x1="33.3%" y1="0%" x2="100%" y2="100%"><stop offset="20%" stop-color="#d5cdc0" stop-opacity="1"></stop><stop offset="80%" stop-color="#d5cdc0" stop-opacity="1"></stop></linearGradient></defs><defs><linearGradient id="grad2_0" x1="0%" y1="0%" x2="66.7%" y2="100%"><stop offset="20%" stop-color="#d5cdc0" stop-opacity="1"></stop><stop offset="80%" stop-color="#d5cdc0" stop-opacity="1"></stop></linearGradient></defs><g transform="translate(900, 0)"><path d="M0 324.5C-44 319.2 -87.9 313.9 -121.7 293.8C-155.5 273.7 -179 238.9 -210 210C-241 181.1 -279.5 158.2 -299.8 124.2C-320.1 90.2 -322.3 45.1 -324.5 0L0 0Z" fill="#191D21"></path></g><g transform="translate(0, 600)"><path d="M0 -324.5C41.9 -316.6 83.9 -308.7 120.9 -291.9C158 -275.2 190.1 -249.7 221.3 -221.3C252.5 -192.9 282.8 -161.6 299.8 -124.2C316.8 -86.8 320.7 -43.4 324.5 0L0 0Z" fill="#191D21"></path></g></svg>